<svg id="visual" viewBox="0 0 960 540" width="960" height="540" xmlns="http://www.w3.org/2000/svg" xmlns:xlink="http://www.w3.org/1999/xlink" version="1.1"><rect x="0" y="0" width="960" height="540" fill="#000e0c"></rect><g fill="#002a25"><circle r="27" cx="153" cy="385"></circle><circle r="2" cx="616" cy="258"></circle><circle r="3" cx="853" cy="72"></circle><circle r="17" cx="44" cy="33"></circle><circle r="19" cx="101" cy="118"></circle><circle r="21" cx="211" cy="181"></circle><circle r="13" cx="8" cy="187"></circle><circle r="12" cx="313" cy="334"></circle><circle r="25" cx="171" cy="127"></circle><circle r="1" cx="900" cy="463"></circle><circle r="9" cx="308" cy="462"></circle><circle r="4" cx="382" cy="181"></circle><circle r="14" cx="252" cy="3"></circle><circle r="1" cx="836" cy="448"></circle><circle r="15" cx="654" cy="483"></circle><circle r="16" cx="263" cy="296"></circle><circle r="9" cx="632" cy="10"></circle><circle r="5" cx="81" cy="279"></circle><circle r="16" cx="671" cy="181"></circle><circle r="17" cx="444" cy="414"></circle><circle r="2" cx="734" cy="114"></circle><circle r="8" cx="765" cy="224"></circle><circle r="1" cx="24" cy="115"></circle><circle r="20" cx="876" cy="526"></circle><circle r="14" cx="862" cy="241"></circle><circle r="19" cx="30" cy="516"></circle><circle r="12" cx="154" cy="78"></circle><circle r="10" cx="533" cy="23"></circle><circle r="16" cx="941" cy="222"></circle><circle r="15" cx="945" cy="524"></circle><circle r="13" cx="737" cy="285"></circle><circle r="10" cx="297" cy="138"></circle><circle r="16" cx="179" cy="340"></circle><circle r="2" cx="48" cy="236"></circle><circle r="22" cx="190" cy="234"></circle><circle r="25" cx="473" cy="84"></circle><circle r="1" cx="353" cy="40"></circle><circle r="21" cx="699" cy="35"></circle><circle r="24" cx="789" cy="324"></circle><circle r="14" cx="237" cy="387"></circle><circle r="20" cx="930" cy="399"></circle><circle r="11" cx="158" cy="439"></circle><circle r="7" cx="632" cy="352"></circle><circle r="18" cx="227" cy="508"></circle><circle r="23" cx="569" cy="362"></circle><circle r="16" cx="633" cy="87"></circle><circle r="15" cx="405" cy="290"></circle><circle r="12" cx="368" cy="130"></circle><circle r="18" cx="366" cy="361"></circle><circle r="11" cx="22" cy="354"></circle><circle r="20" cx="117" cy="5"></circle><circle r="6" cx="409" cy="85"></circle><circle r="22" cx="488" cy="294"></circle><circle r="7" cx="248" cy="459"></circle><circle r="2" cx="747" cy="532"></circle><circle r="19" cx="375" cy="412"></circle><circle r="17" cx="730" cy="344"></circle><circle r="20" cx="21" cy="425"></circle><circle r="21" cx="931" cy="334"></circle><circle r="7" cx="544" cy="455"></circle><circle r="19" cx="696" cy="424"></circle><circle r="8" cx="770" cy="433"></circle><circle r="23" cx="365" cy="230"></circle><circle r="6" cx="803" cy="175"></circle><circle r="21" cx="723" cy="472"></circle><circle r="16" cx="490" cy="184"></circle><circle r="16" cx="934" cy="133"></circle><circle r="24" cx="688" cy="525"></circle><circle r="3" cx="437" cy="40"></circle><circle r="11" cx="459" cy="488"></circle><circle r="1" cx="849" cy="144"></circle><circle r="20" cx="130" cy="170"></circle><circle r="4" cx="158" cy="506"></circle><circle r="24" cx="456" cy="341"></circle><circle r="17" cx="523" cy="394"></circle><circle r="19" cx="229" cy="75"></circle><circle r="7" cx="249" cy="237"></circle><circle r="24" cx="829" cy="16"></circle><circle r="23" cx="855" cy="306"></circle><circle r="8" cx="566" cy="513"></circle><circle r="18" cx="851" cy="365"></circle><circle r="11" cx="62" cy="184"></circle><circle r="18" cx="321" cy="185"></circle><circle r="13" cx="611" cy="184"></circle><circle r="2" cx="358" cy="491"></circle><circle r="22" cx="931" cy="277"></circle><circle r="5" cx="669" cy="263"></circle><circle r="21" cx="784" cy="98"></circle><circle r="16" cx="558" cy="205"></circle><circle r="4" cx="290" cy="403"></circle><circle r="11" cx="120" cy="235"></circle><circle r="2" cx="303" cy="534"></circle><circle r="12" cx="141" cy="288"></circle><circle r="5" cx="897" cy="2"></circle><circle r="7" cx="87" cy="450"></circle><circle r="11" cx="527" cy="138"></circle><circle r="17" cx="578" cy="121"></circle><circle r="4" cx="98" cy="525"></circle><circle r="14" cx="295" cy="74"></circle><circle r="19" cx="795" cy="508"></circle><circle r="1" cx="452" cy="224"></circle><circle r="17" cx="551" cy="303"></circle><circle r="12" cx="587" cy="422"></circle><circle r="20" cx="208" cy="294"></circle><circle r="1" cx="430" cy="142"></circle></g></svg>